<?xml version="1.0" standalone="no"?>
<!DOCTYPE svg PUBLIC "-//W3C//DTD SVG 20010904//EN"
 "http://www.w3.org/TR/2001/REC-SVG-20010904/DTD/svg10.dtd">
<svg version="1.0" xmlns="http://www.w3.org/2000/svg"
 width="450.000000pt" height="450.000000pt" viewBox="0 0 450.000000 450.000000"
 preserveAspectRatio="xMidYMid meet">
<metadata>
Created by potrace 1.11, written by Peter Selinger 2001-2013
</metadata>
<g transform="translate(0.000000,450.000000) scale(0.100000,-0.100000)"
fill="#000000" stroke="none">
<path d="M2088 4495 c-2 -1 -35 -6 -74 -9 -39 -4 -80 -8 -90 -10 -11 -2 -39
-7 -64 -12 -25 -4 -47 -8 -50 -9 -3 0 -23 -4 -45 -9 -22 -4 -87 -21 -144 -38
-648 -187 -1188 -670 -1447 -1295 -63 -152 -120 -347 -140 -481 -3 -20 -7 -48
-10 -62 -19 -108 -25 -392 -11 -540 39 -433 213 -853 499 -1205 40 -50 85
-104 101 -120 34 -37 34 -47 2 -39 -15 4 -25 2 -25 -5 0 -6 -7 -11 -15 -11 -8
0 -15 6 -15 13 0 8 -3 8 -9 -2 -7 -11 -13 -12 -23 -3 -8 6 -24 10 -36 9 -30
-2 -24 -29 8 -38 22 -7 21 -7 -7 -6 -24 1 -33 6 -33 18 0 11 -7 16 -17 14 -10
-1 -24 3 -32 9 -12 9 -13 8 -7 -3 5 -8 3 -17 -5 -22 -10 -6 -11 -9 -1 -9 6 0
12 -4 12 -10 0 -14 -28 -12 -33 3 -3 9 -7 9 -20 -1 -12 -10 -14 -24 -10 -59 4
-34 2 -44 -7 -38 -8 5 -8 2 1 -13 10 -16 10 -23 0 -35 -8 -10 -9 -17 -1 -22
16 -10 12 -56 -7 -71 -15 -12 -15 -13 -2 -8 11 3 18 -2 22 -15 6 -26 24 -27
30 -4 2 10 4 -3 4 -30 0 -41 -2 -47 -17 -42 -10 3 -21 1 -25 -5 -4 -6 -3 -10
2 -9 36 6 41 -1 31 -43 -5 -24 -12 -50 -16 -58 -9 -24 -8 -34 3 -45 18 -18 59
-34 98 -38 34 -5 38 -3 35 17 -2 11 -8 21 -15 21 -16 0 -26 11 -11 13 42 6
158 6 158 1 0 -12 -24 -16 -77 -13 -44 2 -51 0 -46 -14 9 -25 20 -29 61 -26
20 1 54 4 75 5 22 1 37 7 37 15 0 19 30 5 31 -15 0 -13 2 -12 8 3 5 14 10 16
15 8 4 -7 15 -12 24 -11 11 0 12 2 4 6 -6 2 -10 9 -6 14 5 9 -7 11 -75 13 -21
1 -36 7 -39 16 -4 12 -3 13 10 3 8 -7 17 -10 20 -8 3 3 22 7 41 8 28 3 41 -2
56 -19 13 -15 27 -21 40 -17 12 3 21 1 21 -6 0 -7 15 -4 40 9 39 20 53 40 28
40 -10 0 -10 2 0 9 8 4 13 14 12 22 -5 29 0 38 17 32 12 -5 15 -2 10 10 -4 10
-1 17 6 17 7 0 6 4 -3 10 -11 7 -17 5 -21 -7 -3 -10 -8 3 -12 32 -4 26 -5 51
-2 53 3 3 5 -4 5 -15 0 -28 25 -49 34 -28 3 8 1 15 -5 15 -6 0 -7 5 -2 13 11
17 10 61 -2 69 -6 5 -5 12 2 19 19 19 113 -48 113 -80 0 -28 39 -101 54 -101
17 0 32 13 45 37 11 22 12 22 124 -32 227 -109 437 -172 703 -209 99 -14 462
-15 549 -1 52 8 193 33 225 40 14 4 34 8 45 10 89 19 307 97 416 149 30 15 64
26 75 25 40 -4 54 2 59 24 4 13 19 31 35 40 27 17 29 16 28 0 -4 -52 23 -91
51 -73 10 6 10 12 2 28 -13 25 -14 52 -2 71 15 23 41 -5 41 -43 0 -42 25 -76
56 -76 l26 0 -22 35 c-12 19 -21 43 -20 52 4 32 0 43 -19 62 -18 18 -17 20 63
79 113 84 148 114 256 222 343 341 552 752 636 1245 19 107 26 470 12 595 -43
392 -188 759 -430 1088 -86 116 -103 136 -208 242 -182 184 -367 318 -602 434
-210 105 -486 191 -678 211 -30 4 -62 9 -70 12 -15 5 -406 13 -412 8z m-1508
-3867 c0 -4 -11 -7 -25 -6 -33 3 -33 16 0 14 14 0 25 -4 25 -8z m-133 -4 c-3
-3 -12 -4 -19 -1 -8 3 -5 6 6 6 11 1 17 -2 13 -5z m238 -4 c-3 -5 -12 -7 -20
-3 -21 7 -19 13 6 13 11 0 18 -4 14 -10z m-298 -82 c-3 -7 -5 -2 -5 12 0 14 2
19 5 13 2 -7 2 -19 0 -25z m6 -53 c-7 -21 -12 -19 -10 4 0 11 5 18 9 15 4 -3
5 -11 1 -19z m0 -40 c-3 -9 -8 -14 -10 -11 -3 3 -2 9 2 15 9 16 15 13 8 -4z
m514 -42 c-3 -10 -5 -4 -5 12 0 17 2 24 5 18 2 -7 2 -21 0 -30z m223 -114 c0
-5 -4 -9 -10 -9 -5 0 -10 7 -10 16 0 8 5 12 10 9 6 -3 10 -10 10 -16z m-694
-149 c5 1 10 -3 12 -8 4 -13 -31 -10 -40 3 -4 5 -4 13 -1 18 3 5 9 4 13 -3 4
-6 11 -11 16 -10z m434 6 c0 -2 -7 -6 -15 -10 -8 -3 -15 -1 -15 4 0 6 7 10 15
10 8 0 15 -2 15 -4z"/>
<path d="M351 308 c24 -21 33 -19 23 5 -3 9 -15 15 -26 14 -19 -1 -19 -2 3
-19z"/>
</g>
</svg>
